<mxfile host="app.diagrams.net" modified="2022-04-16T03:58:49.467Z" agent="5.0 (Windows NT 10.0; Win64; x64) AppleWebKit/537.36 (KHTML, like Gecko) Chrome/100.0.4896.127 Safari/537.36" etag="jkKmpTqP4z40jAAH1XLM" version="17.4.5" type="github">
  <diagram id="JnELOo1l3grD8btvPJ0q" name="Page-1">
    <mxGraphModel dx="1038" dy="547" grid="1" gridSize="10" guides="1" tooltips="1" connect="1" arrows="1" fold="1" page="1" pageScale="1" pageWidth="827" pageHeight="1169" math="0" shadow="0">
      <root>
        <mxCell id="0" />
        <mxCell id="1" parent="0" />
        <mxCell id="WLLKisjKrPDKqr0g-KdP-1" value="REQUIREMENTS::&lt;span style=&quot;color: rgb(34 , 34 , 34) ; font-family: &amp;#34;arial&amp;#34; , &amp;#34;helvetica&amp;#34; , sans-serif ; font-size: small ; background-color: rgb(255 , 255 , 255)&quot;&gt;&amp;nbsp;1. include what AWS services(EC2, S3, Lambda, Amplify, etc) you would leverage, APIs you would create, and how they would interact with one another.&lt;br&gt;&lt;/span&gt;&lt;span style=&quot;color: rgb(34 , 34 , 34) ; font-family: &amp;#34;arial&amp;#34; , &amp;#34;helvetica&amp;#34; , sans-serif ; font-size: small ; background-color: rgb(255 , 255 , 255)&quot;&gt;&amp;nbsp;2. DB schemas you would create for the product - consider we have 3 main types of data, the user (company &amp;amp; professional - user sensitive data, files (pdfs, docs, etc), and mutable meta-data from the ML API. The goal is to see how you would design a scalable DB design for these&lt;br&gt;&lt;/span&gt;&lt;span style=&quot;color: rgb(34 , 34 , 34) ; font-family: &amp;#34;arial&amp;#34; , &amp;#34;helvetica&amp;#34; , sans-serif ; font-size: small ; background-color: rgb(255 , 255 , 255)&quot;&gt;3.&amp;nbsp;&lt;/span&gt;&lt;span style=&quot;color: rgb(34 , 34 , 34) ; font-family: &amp;#34;arial&amp;#34; , &amp;#34;helvetica&amp;#34; , sans-serif ; font-size: small ; background-color: rgb(255 , 255 , 255)&quot;&gt;Recreate the screens and flow for the dashboard, demonstrate how you would visualize this flow - APIs you would interact with.&lt;br&gt;&lt;/span&gt;&lt;span style=&quot;color: rgb(34 , 34 , 34) ; font-family: &amp;#34;arial&amp;#34; , &amp;#34;helvetica&amp;#34; , sans-serif ; font-size: small ; background-color: rgb(255 , 255 , 255)&quot;&gt;4..&lt;/span&gt;&lt;span style=&quot;color: rgb(34 , 34 , 34) ; font-family: &amp;#34;arial&amp;#34; , &amp;#34;helvetica&amp;#34; , sans-serif ; font-size: small ; background-color: rgb(255 , 255 , 255)&quot;&gt;&amp;nbsp;What architecture and services would you use to deploy it on AWS&lt;br&gt;&lt;/span&gt;&lt;span style=&quot;color: rgb(34 , 34 , 34) ; font-family: &amp;#34;arial&amp;#34; , &amp;#34;helvetica&amp;#34; , sans-serif ; font-size: small ; background-color: rgb(255 , 255 , 255)&quot;&gt;5.&amp;nbsp;&lt;/span&gt;&lt;span style=&quot;color: rgb(34 , 34 , 34) ; font-family: &amp;#34;arial&amp;#34; , &amp;#34;helvetica&amp;#34; , sans-serif ; font-size: small ; background-color: rgb(255 , 255 , 255)&quot;&gt;How would you make this architecture scalable for new features and multiple users&lt;br&gt;&lt;/span&gt;&lt;span style=&quot;color: rgb(34 , 34 , 34) ; font-family: &amp;#34;arial&amp;#34; , &amp;#34;helvetica&amp;#34; , sans-serif ; font-size: small ; background-color: rgb(255 , 255 , 255)&quot;&gt;5..&lt;/span&gt;&lt;span style=&quot;color: rgb(34 , 34 , 34) ; font-family: &amp;#34;arial&amp;#34; , &amp;#34;helvetica&amp;#34; , sans-serif ; font-size: small ; background-color: rgb(255 , 255 , 255)&quot;&gt;&amp;nbsp;Would you use a microsystem architecture?&lt;br&gt;&lt;/span&gt;&lt;span style=&quot;color: rgb(34 , 34 , 34) ; font-family: &amp;#34;arial&amp;#34; , &amp;#34;helvetica&amp;#34; , sans-serif ; font-size: small ; background-color: rgb(255 , 255 , 255)&quot;&gt;6.&amp;nbsp;&lt;/span&gt;&lt;span style=&quot;color: rgb(34 , 34 , 34) ; font-family: &amp;#34;arial&amp;#34; , &amp;#34;helvetica&amp;#34; , sans-serif ; font-size: small ; background-color: rgb(255 , 255 , 255)&quot;&gt;In the DB schema how would you handle the dual nature of the user? - a user can both be a professional(seeking job) and a recruiter(sourcing/screening) for a company&lt;br&gt;&lt;/span&gt;&lt;span style=&quot;color: rgb(34 , 34 , 34) ; font-family: &amp;#34;arial&amp;#34; , &amp;#34;helvetica&amp;#34; , sans-serif ; font-size: small ; background-color: rgb(255 , 255 , 255)&quot;&gt;7.&amp;nbsp;&lt;/span&gt;&lt;span style=&quot;color: rgb(34 , 34 , 34) ; font-family: &amp;#34;arial&amp;#34; , &amp;#34;helvetica&amp;#34; , sans-serif ; font-size: small ; background-color: rgb(255 , 255 , 255)&quot;&gt;Where would you handle Async requests? What AWS service would you use for it?&lt;/span&gt;&lt;span style=&quot;color: rgb(34 , 34 , 34) ; font-family: &amp;#34;arial&amp;#34; , &amp;#34;helvetica&amp;#34; , sans-serif ; font-size: small ; background-color: rgb(255 , 255 , 255)&quot;&gt;&lt;br&gt;&lt;/span&gt;" style="rounded=0;whiteSpace=wrap;html=1;align=left;" vertex="1" parent="1">
          <mxGeometry width="800" height="200" as="geometry" />
        </mxCell>
        <mxCell id="WLLKisjKrPDKqr0g-KdP-2" value="AWS SERVUCES:EC2 AND S3&lt;br&gt;EC2 because easily scalable,only pay for what you use, we can choose instance type based on business requirements, can be integrated into serveral other services,depends on the demands,flexibility&lt;br&gt;EC2 supports auto&amp;nbsp; scaling" style="rounded=0;whiteSpace=wrap;html=1;align=left;" vertex="1" parent="1">
          <mxGeometry y="240" width="240" height="120" as="geometry" />
        </mxCell>
        <mxCell id="WLLKisjKrPDKqr0g-KdP-6" value="" style="edgeStyle=orthogonalEdgeStyle;rounded=0;orthogonalLoop=1;jettySize=auto;html=1;" edge="1" parent="1" source="WLLKisjKrPDKqr0g-KdP-4" target="WLLKisjKrPDKqr0g-KdP-5">
          <mxGeometry relative="1" as="geometry" />
        </mxCell>
        <mxCell id="WLLKisjKrPDKqr0g-KdP-8" value="" style="edgeStyle=orthogonalEdgeStyle;rounded=0;orthogonalLoop=1;jettySize=auto;html=1;" edge="1" parent="1" source="WLLKisjKrPDKqr0g-KdP-4" target="WLLKisjKrPDKqr0g-KdP-7">
          <mxGeometry relative="1" as="geometry" />
        </mxCell>
        <mxCell id="WLLKisjKrPDKqr0g-KdP-12" value="" style="edgeStyle=orthogonalEdgeStyle;rounded=0;orthogonalLoop=1;jettySize=auto;html=1;" edge="1" parent="1" source="WLLKisjKrPDKqr0g-KdP-4" target="WLLKisjKrPDKqr0g-KdP-11">
          <mxGeometry relative="1" as="geometry" />
        </mxCell>
        <mxCell id="WLLKisjKrPDKqr0g-KdP-4" value="Database" style="shape=cylinder3;whiteSpace=wrap;html=1;boundedLbl=1;backgroundOutline=1;size=15;" vertex="1" parent="1">
          <mxGeometry x="550" y="230" width="60" height="80" as="geometry" />
        </mxCell>
        <mxCell id="WLLKisjKrPDKqr0g-KdP-10" value="" style="edgeStyle=orthogonalEdgeStyle;rounded=0;orthogonalLoop=1;jettySize=auto;html=1;" edge="1" parent="1" source="WLLKisjKrPDKqr0g-KdP-5" target="WLLKisjKrPDKqr0g-KdP-9">
          <mxGeometry relative="1" as="geometry" />
        </mxCell>
        <mxCell id="WLLKisjKrPDKqr0g-KdP-5" value="company" style="shape=cylinder3;whiteSpace=wrap;html=1;boundedLbl=1;backgroundOutline=1;size=15;" vertex="1" parent="1">
          <mxGeometry x="470" y="340" width="60" height="80" as="geometry" />
        </mxCell>
        <mxCell id="WLLKisjKrPDKqr0g-KdP-14" value="" style="edgeStyle=orthogonalEdgeStyle;rounded=0;orthogonalLoop=1;jettySize=auto;html=1;" edge="1" parent="1" source="WLLKisjKrPDKqr0g-KdP-7" target="WLLKisjKrPDKqr0g-KdP-13">
          <mxGeometry relative="1" as="geometry" />
        </mxCell>
        <mxCell id="WLLKisjKrPDKqr0g-KdP-7" value="professionals" style="shape=cylinder3;whiteSpace=wrap;html=1;boundedLbl=1;backgroundOutline=1;size=15;" vertex="1" parent="1">
          <mxGeometry x="640" y="340" width="80" height="80" as="geometry" />
        </mxCell>
        <mxCell id="WLLKisjKrPDKqr0g-KdP-9" value="id&lt;br&gt;skills:string&lt;br&gt;location:string&lt;br&gt;experiance:string&lt;br&gt;ctc:string&lt;br&gt;designation:string&lt;br&gt;department:string&lt;br&gt;" style="whiteSpace=wrap;html=1;align=left;" vertex="1" parent="1">
          <mxGeometry x="440" y="440" width="120" height="160" as="geometry" />
        </mxCell>
        <mxCell id="WLLKisjKrPDKqr0g-KdP-11" value="meta data(ML API)" style="shape=cylinder3;whiteSpace=wrap;html=1;boundedLbl=1;backgroundOutline=1;size=15;" vertex="1" parent="1">
          <mxGeometry x="767" y="340" width="60" height="80" as="geometry" />
        </mxCell>
        <mxCell id="WLLKisjKrPDKqr0g-KdP-13" value="id&lt;br&gt;name:string&lt;br&gt;mobile:number&lt;br&gt;email:string&lt;br&gt;experiance:string&lt;br&gt;curr ctc:string&lt;br&gt;expected ctc:string&lt;br&gt;preferred location:string&lt;br&gt;resume:string(file upload using multer npm package)" style="whiteSpace=wrap;html=1;align=left;" vertex="1" parent="1">
          <mxGeometry x="620" y="440" width="140" height="160" as="geometry" />
        </mxCell>
        <mxCell id="WLLKisjKrPDKqr0g-KdP-15" value="DESIGN SCALABLE DB DESIGN: WE CAN USE HORIZONTAL SCALING&lt;br&gt;NUMBER OF WAYS TO SCALE DATABASE HORIZONTALLY&lt;br&gt;1.ADDING READ REPLICAS TO HANDLE READ-HEAVY WORKLOADS&lt;br&gt;2.READING FROM THE CACHE(REDIS) BEFORE HITTING THE PRIMARY DB TO REDUCE DATABASE LOAD&lt;br&gt;3.SHARDING DATABASE INTO MULTIPLE SERVERS TO IMPROVE BOTH READ AND WRITE PERFORMANCE" style="rounded=1;whiteSpace=wrap;html=1;align=left;" vertex="1" parent="1">
          <mxGeometry y="640" width="480" height="120" as="geometry" />
        </mxCell>
        <mxCell id="WLLKisjKrPDKqr0g-KdP-26" value="API&lt;br&gt;&lt;font size=&quot;1&quot;&gt;Company side API,Professional side API&lt;br&gt;Company&lt;br&gt;&lt;ol&gt;&lt;li&gt;&lt;font size=&quot;1&quot;&gt;/:{JD}/list of resume&lt;/font&gt;&lt;/li&gt;&lt;li&gt;&lt;font size=&quot;1&quot;&gt;/{JD}&lt;/font&gt;&lt;/li&gt;&lt;li&gt;&lt;font size=&quot;1&quot;&gt;/{Application id or job id}/inform&lt;/font&gt;&lt;/li&gt;&lt;li&gt;&lt;font size=&quot;1&quot;&gt;/{field}/{JD}/resume&lt;/font&gt;&lt;/li&gt;&lt;li&gt;&lt;span style=&quot;font-size: x-small&quot;&gt;/{field}/{JD}&lt;/span&gt;&lt;/li&gt;&lt;/ol&gt;PROFESSIONALS&lt;br&gt;&lt;ol&gt;&lt;li&gt;&lt;font size=&quot;1&quot;&gt;/{details}/upload resume&lt;/font&gt;&lt;/li&gt;&lt;li&gt;&lt;font size=&quot;1&quot;&gt;/{JD}&lt;/font&gt;&lt;/li&gt;&lt;li&gt;&lt;font size=&quot;1&quot;&gt;/{jobid}&lt;/font&gt;&lt;/li&gt;&lt;li&gt;&lt;font size=&quot;1&quot;&gt;/{job location}&lt;/font&gt;&lt;/li&gt;&lt;li&gt;&lt;font size=&quot;1&quot;&gt;/{company}/{JD}&lt;/font&gt;&lt;/li&gt;&lt;/ol&gt;&lt;/font&gt;" style="rounded=0;whiteSpace=wrap;html=1;" vertex="1" parent="1">
          <mxGeometry x="10" y="780" width="760" height="240" as="geometry" />
        </mxCell>
        <mxCell id="WLLKisjKrPDKqr0g-KdP-28" value="User1" style="shape=umlActor;verticalLabelPosition=bottom;verticalAlign=top;html=1;outlineConnect=0;fontSize=20;" vertex="1" parent="1">
          <mxGeometry x="40" y="1090" width="30" height="30" as="geometry" />
        </mxCell>
        <mxCell id="WLLKisjKrPDKqr0g-KdP-29" value="user2" style="shape=umlActor;verticalLabelPosition=bottom;verticalAlign=top;html=1;outlineConnect=0;fontSize=20;" vertex="1" parent="1">
          <mxGeometry x="40" y="1169" width="30" height="30" as="geometry" />
        </mxCell>
        <mxCell id="WLLKisjKrPDKqr0g-KdP-30" value="user3" style="shape=umlActor;verticalLabelPosition=bottom;verticalAlign=top;html=1;outlineConnect=0;fontSize=20;" vertex="1" parent="1">
          <mxGeometry x="40" y="1250" width="30" height="40" as="geometry" />
        </mxCell>
        <mxCell id="WLLKisjKrPDKqr0g-KdP-32" value="ROLE BASED&amp;nbsp;&lt;br&gt;AUTHENTICATION" style="rounded=0;whiteSpace=wrap;html=1;fontSize=12;" vertex="1" parent="1">
          <mxGeometry x="120" y="1160" width="120" height="60" as="geometry" />
        </mxCell>
        <mxCell id="WLLKisjKrPDKqr0g-KdP-40" value="" style="endArrow=none;html=1;rounded=0;fontSize=12;exitX=1;exitY=0.3333333333333333;exitDx=0;exitDy=0;exitPerimeter=0;" edge="1" parent="1" source="WLLKisjKrPDKqr0g-KdP-28">
          <mxGeometry width="50" height="50" relative="1" as="geometry">
            <mxPoint x="80" y="1120" as="sourcePoint" />
            <mxPoint x="140" y="1100" as="targetPoint" />
          </mxGeometry>
        </mxCell>
        <mxCell id="WLLKisjKrPDKqr0g-KdP-41" value="" style="endArrow=classic;html=1;rounded=0;fontSize=12;entryX=0.17;entryY=0.01;entryDx=0;entryDy=0;entryPerimeter=0;" edge="1" parent="1" target="WLLKisjKrPDKqr0g-KdP-32">
          <mxGeometry width="50" height="50" relative="1" as="geometry">
            <mxPoint x="140" y="1100" as="sourcePoint" />
            <mxPoint x="190" y="1090" as="targetPoint" />
          </mxGeometry>
        </mxCell>
        <mxCell id="WLLKisjKrPDKqr0g-KdP-44" value="" style="endArrow=classic;html=1;rounded=0;fontSize=12;exitX=1;exitY=0.3333333333333333;exitDx=0;exitDy=0;exitPerimeter=0;entryX=0.01;entryY=0.383;entryDx=0;entryDy=0;entryPerimeter=0;" edge="1" parent="1" source="WLLKisjKrPDKqr0g-KdP-29" target="WLLKisjKrPDKqr0g-KdP-32">
          <mxGeometry width="50" height="50" relative="1" as="geometry">
            <mxPoint x="70" y="1210" as="sourcePoint" />
            <mxPoint x="120" y="1160" as="targetPoint" />
          </mxGeometry>
        </mxCell>
        <mxCell id="WLLKisjKrPDKqr0g-KdP-45" value="" style="endArrow=none;html=1;rounded=0;fontSize=12;exitX=1;exitY=0.3333333333333333;exitDx=0;exitDy=0;exitPerimeter=0;" edge="1" parent="1" source="WLLKisjKrPDKqr0g-KdP-30">
          <mxGeometry width="50" height="50" relative="1" as="geometry">
            <mxPoint x="110" y="1290" as="sourcePoint" />
            <mxPoint x="140" y="1263" as="targetPoint" />
          </mxGeometry>
        </mxCell>
        <mxCell id="WLLKisjKrPDKqr0g-KdP-46" value="" style="endArrow=classic;html=1;rounded=0;fontSize=12;" edge="1" parent="1">
          <mxGeometry width="50" height="50" relative="1" as="geometry">
            <mxPoint x="140" y="1260" as="sourcePoint" />
            <mxPoint x="140" y="1220" as="targetPoint" />
          </mxGeometry>
        </mxCell>
        <mxCell id="WLLKisjKrPDKqr0g-KdP-47" value="" style="endArrow=classic;html=1;rounded=0;fontSize=12;exitX=1;exitY=0.5;exitDx=0;exitDy=0;" edge="1" parent="1" source="WLLKisjKrPDKqr0g-KdP-32">
          <mxGeometry width="50" height="50" relative="1" as="geometry">
            <mxPoint x="380" y="1240" as="sourcePoint" />
            <mxPoint x="320" y="1190" as="targetPoint" />
          </mxGeometry>
        </mxCell>
        <mxCell id="WLLKisjKrPDKqr0g-KdP-49" value="LB" style="ellipse;whiteSpace=wrap;html=1;aspect=fixed;fontSize=12;" vertex="1" parent="1">
          <mxGeometry x="320" y="1160" width="50" height="50" as="geometry" />
        </mxCell>
        <mxCell id="WLLKisjKrPDKqr0g-KdP-50" value="" style="endArrow=classic;html=1;rounded=0;fontSize=12;exitX=1;exitY=0.5;exitDx=0;exitDy=0;" edge="1" parent="1" source="WLLKisjKrPDKqr0g-KdP-49" target="WLLKisjKrPDKqr0g-KdP-51">
          <mxGeometry width="50" height="50" relative="1" as="geometry">
            <mxPoint x="380" y="1240" as="sourcePoint" />
            <mxPoint x="420" y="1185" as="targetPoint" />
            <Array as="points" />
          </mxGeometry>
        </mxCell>
        <mxCell id="WLLKisjKrPDKqr0g-KdP-53" value="" style="edgeStyle=orthogonalEdgeStyle;rounded=0;orthogonalLoop=1;jettySize=auto;html=1;fontSize=12;strokeColor=none;" edge="1" parent="1" source="WLLKisjKrPDKqr0g-KdP-51" target="WLLKisjKrPDKqr0g-KdP-52">
          <mxGeometry relative="1" as="geometry" />
        </mxCell>
        <mxCell id="WLLKisjKrPDKqr0g-KdP-56" value="" style="edgeStyle=orthogonalEdgeStyle;rounded=0;orthogonalLoop=1;jettySize=auto;html=1;fontSize=12;" edge="1" parent="1" source="WLLKisjKrPDKqr0g-KdP-51" target="WLLKisjKrPDKqr0g-KdP-54">
          <mxGeometry relative="1" as="geometry" />
        </mxCell>
        <mxCell id="WLLKisjKrPDKqr0g-KdP-83" style="edgeStyle=orthogonalEdgeStyle;rounded=0;orthogonalLoop=1;jettySize=auto;html=1;exitX=0.5;exitY=1;exitDx=0;exitDy=0;fontSize=12;" edge="1" parent="1" source="WLLKisjKrPDKqr0g-KdP-51">
          <mxGeometry relative="1" as="geometry">
            <mxPoint x="440" y="1503.199951171875" as="targetPoint" />
          </mxGeometry>
        </mxCell>
        <mxCell id="WLLKisjKrPDKqr0g-KdP-51" value="CLIENT&lt;br&gt;FRONTEND&lt;br&gt;EC2" style="rounded=0;whiteSpace=wrap;html=1;fontSize=12;" vertex="1" parent="1">
          <mxGeometry x="390" y="1154" width="100" height="56" as="geometry" />
        </mxCell>
        <mxCell id="WLLKisjKrPDKqr0g-KdP-52" value="EC2&lt;br&gt;AUTO SCALING" style="rounded=0;whiteSpace=wrap;html=1;fontSize=12;" vertex="1" parent="1">
          <mxGeometry x="390" y="1090" width="100" height="56" as="geometry" />
        </mxCell>
        <mxCell id="WLLKisjKrPDKqr0g-KdP-63" style="edgeStyle=orthogonalEdgeStyle;rounded=0;orthogonalLoop=1;jettySize=auto;html=1;exitX=0.5;exitY=0;exitDx=0;exitDy=0;entryX=0;entryY=0.5;entryDx=0;entryDy=0;fontSize=12;" edge="1" parent="1" source="WLLKisjKrPDKqr0g-KdP-54" target="WLLKisjKrPDKqr0g-KdP-57">
          <mxGeometry relative="1" as="geometry" />
        </mxCell>
        <mxCell id="WLLKisjKrPDKqr0g-KdP-64" style="edgeStyle=orthogonalEdgeStyle;rounded=0;orthogonalLoop=1;jettySize=auto;html=1;exitX=0.5;exitY=1;exitDx=0;exitDy=0;entryX=0;entryY=0.75;entryDx=0;entryDy=0;fontSize=12;" edge="1" parent="1" source="WLLKisjKrPDKqr0g-KdP-54" target="WLLKisjKrPDKqr0g-KdP-58">
          <mxGeometry relative="1" as="geometry" />
        </mxCell>
        <mxCell id="WLLKisjKrPDKqr0g-KdP-54" value="LB" style="ellipse;whiteSpace=wrap;html=1;aspect=fixed;fontSize=12;" vertex="1" parent="1">
          <mxGeometry x="530" y="1157" width="50" height="50" as="geometry" />
        </mxCell>
        <mxCell id="WLLKisjKrPDKqr0g-KdP-66" value="" style="edgeStyle=orthogonalEdgeStyle;rounded=0;orthogonalLoop=1;jettySize=auto;html=1;fontSize=12;strokeColor=none;" edge="1" parent="1" source="WLLKisjKrPDKqr0g-KdP-57" target="WLLKisjKrPDKqr0g-KdP-65">
          <mxGeometry relative="1" as="geometry" />
        </mxCell>
        <mxCell id="WLLKisjKrPDKqr0g-KdP-68" value="" style="edgeStyle=orthogonalEdgeStyle;rounded=0;orthogonalLoop=1;jettySize=auto;html=1;fontSize=12;" edge="1" parent="1" source="WLLKisjKrPDKqr0g-KdP-57" target="WLLKisjKrPDKqr0g-KdP-67">
          <mxGeometry relative="1" as="geometry" />
        </mxCell>
        <mxCell id="WLLKisjKrPDKqr0g-KdP-57" value="&lt;span&gt;APP SERVER&lt;/span&gt;&lt;br&gt;&lt;span&gt;READ&lt;br&gt;EC2&lt;br&gt;&lt;/span&gt;" style="rounded=0;whiteSpace=wrap;html=1;fontSize=12;" vertex="1" parent="1">
          <mxGeometry x="600" y="1086" width="120" height="60" as="geometry" />
        </mxCell>
        <mxCell id="WLLKisjKrPDKqr0g-KdP-80" style="edgeStyle=orthogonalEdgeStyle;rounded=0;orthogonalLoop=1;jettySize=auto;html=1;exitX=1;exitY=0.25;exitDx=0;exitDy=0;fontSize=12;" edge="1" parent="1" source="WLLKisjKrPDKqr0g-KdP-58">
          <mxGeometry relative="1" as="geometry">
            <mxPoint x="840" y="1214" as="targetPoint" />
          </mxGeometry>
        </mxCell>
        <mxCell id="WLLKisjKrPDKqr0g-KdP-58" value="&lt;span&gt;APP SERVER&lt;/span&gt;&lt;br&gt;&lt;span&gt;WRITE&lt;br&gt;EC2&lt;br&gt;&lt;/span&gt;" style="rounded=0;whiteSpace=wrap;html=1;fontSize=12;" vertex="1" parent="1">
          <mxGeometry x="610" y="1199" width="120" height="60" as="geometry" />
        </mxCell>
        <mxCell id="WLLKisjKrPDKqr0g-KdP-71" value="" style="edgeStyle=orthogonalEdgeStyle;rounded=0;orthogonalLoop=1;jettySize=auto;html=1;fontSize=12;" edge="1" parent="1" source="WLLKisjKrPDKqr0g-KdP-65" target="WLLKisjKrPDKqr0g-KdP-70">
          <mxGeometry relative="1" as="geometry" />
        </mxCell>
        <mxCell id="WLLKisjKrPDKqr0g-KdP-65" value="CACHE(REDIS)&lt;br&gt;" style="rounded=1;whiteSpace=wrap;html=1;fontSize=12;" vertex="1" parent="1">
          <mxGeometry x="810" y="1086" width="120" height="60" as="geometry" />
        </mxCell>
        <mxCell id="WLLKisjKrPDKqr0g-KdP-69" value="" style="edgeStyle=orthogonalEdgeStyle;rounded=0;orthogonalLoop=1;jettySize=auto;html=1;fontSize=12;" edge="1" parent="1" source="WLLKisjKrPDKqr0g-KdP-67" target="WLLKisjKrPDKqr0g-KdP-65">
          <mxGeometry relative="1" as="geometry" />
        </mxCell>
        <mxCell id="WLLKisjKrPDKqr0g-KdP-67" value="READ" style="rounded=1;whiteSpace=wrap;html=1;fontSize=12;" vertex="1" parent="1">
          <mxGeometry x="740" y="1101" width="50" height="30" as="geometry" />
        </mxCell>
        <mxCell id="WLLKisjKrPDKqr0g-KdP-73" value="" style="edgeStyle=orthogonalEdgeStyle;rounded=0;orthogonalLoop=1;jettySize=auto;html=1;fontSize=12;" edge="1" parent="1" source="WLLKisjKrPDKqr0g-KdP-70" target="WLLKisjKrPDKqr0g-KdP-72">
          <mxGeometry relative="1" as="geometry" />
        </mxCell>
        <mxCell id="WLLKisjKrPDKqr0g-KdP-70" value="METADATA&lt;br&gt;DB" style="shape=cylinder3;whiteSpace=wrap;html=1;boundedLbl=1;backgroundOutline=1;size=15;fontSize=12;" vertex="1" parent="1">
          <mxGeometry x="980" y="1050" width="80" height="120" as="geometry" />
        </mxCell>
        <mxCell id="WLLKisjKrPDKqr0g-KdP-78" style="edgeStyle=orthogonalEdgeStyle;rounded=0;orthogonalLoop=1;jettySize=auto;html=1;exitX=0.5;exitY=1;exitDx=0;exitDy=0;entryX=1.007;entryY=0.623;entryDx=0;entryDy=0;entryPerimeter=0;fontSize=12;" edge="1" parent="1" source="WLLKisjKrPDKqr0g-KdP-72" target="WLLKisjKrPDKqr0g-KdP-75">
          <mxGeometry relative="1" as="geometry" />
        </mxCell>
        <mxCell id="WLLKisjKrPDKqr0g-KdP-72" value="OBJECT STORAGE&lt;br&gt;S3" style="rounded=0;whiteSpace=wrap;html=1;fontSize=12;" vertex="1" parent="1">
          <mxGeometry x="970" y="1250" width="120" height="60" as="geometry" />
        </mxCell>
        <mxCell id="WLLKisjKrPDKqr0g-KdP-74" value="FILE PATH" style="shape=callout;whiteSpace=wrap;html=1;perimeter=calloutPerimeter;fontSize=12;position2=0;" vertex="1" parent="1">
          <mxGeometry x="1040" y="1170" width="80" height="60" as="geometry" />
        </mxCell>
        <mxCell id="WLLKisjKrPDKqr0g-KdP-77" style="edgeStyle=orthogonalEdgeStyle;rounded=0;orthogonalLoop=1;jettySize=auto;html=1;exitX=0;exitY=0.5;exitDx=0;exitDy=0;fontSize=12;" edge="1" parent="1" source="WLLKisjKrPDKqr0g-KdP-75" target="WLLKisjKrPDKqr0g-KdP-76">
          <mxGeometry relative="1" as="geometry" />
        </mxCell>
        <mxCell id="WLLKisjKrPDKqr0g-KdP-79" style="edgeStyle=orthogonalEdgeStyle;rounded=0;orthogonalLoop=1;jettySize=auto;html=1;exitX=0.5;exitY=0;exitDx=0;exitDy=0;entryX=1;entryY=0.5;entryDx=0;entryDy=0;fontSize=12;" edge="1" parent="1" source="WLLKisjKrPDKqr0g-KdP-75" target="WLLKisjKrPDKqr0g-KdP-58">
          <mxGeometry relative="1" as="geometry" />
        </mxCell>
        <mxCell id="WLLKisjKrPDKqr0g-KdP-75" value="ML/AI BOX" style="rounded=0;whiteSpace=wrap;html=1;fontSize=12;" vertex="1" parent="1">
          <mxGeometry x="750" y="1300" width="120" height="60" as="geometry" />
        </mxCell>
        <mxCell id="WLLKisjKrPDKqr0g-KdP-76" value="" style="shape=cylinder3;whiteSpace=wrap;html=1;boundedLbl=1;backgroundOutline=1;size=15;fontSize=12;" vertex="1" parent="1">
          <mxGeometry x="660" y="1370" width="60" height="80" as="geometry" />
        </mxCell>
        <mxCell id="WLLKisjKrPDKqr0g-KdP-82" style="edgeStyle=orthogonalEdgeStyle;rounded=0;orthogonalLoop=1;jettySize=auto;html=1;exitX=1;exitY=0.5;exitDx=0;exitDy=0;entryX=0;entryY=0.5;entryDx=0;entryDy=0;fontSize=12;" edge="1" parent="1" source="WLLKisjKrPDKqr0g-KdP-81" target="WLLKisjKrPDKqr0g-KdP-72">
          <mxGeometry relative="1" as="geometry" />
        </mxCell>
        <mxCell id="WLLKisjKrPDKqr0g-KdP-81" value="UPLOAD" style="rounded=1;whiteSpace=wrap;html=1;fontSize=12;" vertex="1" parent="1">
          <mxGeometry x="840" y="1199" width="70" height="30" as="geometry" />
        </mxCell>
        <mxCell id="WLLKisjKrPDKqr0g-KdP-84" value="" style="endArrow=classic;html=1;rounded=0;fontSize=12;" edge="1" parent="1">
          <mxGeometry width="50" height="50" relative="1" as="geometry">
            <mxPoint x="440" y="1500" as="sourcePoint" />
            <mxPoint x="1080" y="1500" as="targetPoint" />
          </mxGeometry>
        </mxCell>
        <mxCell id="WLLKisjKrPDKqr0g-KdP-85" value="" style="endArrow=classic;html=1;rounded=0;fontSize=12;entryX=0.9;entryY=1.097;entryDx=0;entryDy=0;entryPerimeter=0;" edge="1" parent="1" target="WLLKisjKrPDKqr0g-KdP-72">
          <mxGeometry width="50" height="50" relative="1" as="geometry">
            <mxPoint x="1080" y="1500" as="sourcePoint" />
            <mxPoint x="1100" y="1420" as="targetPoint" />
          </mxGeometry>
        </mxCell>
        <mxCell id="WLLKisjKrPDKqr0g-KdP-86" value="&lt;span&gt;YES,I WILL USE MICROSERVICES ARCHITECTURE&lt;/span&gt;&lt;br&gt;&lt;div&gt;BECAUSE EAST TO SCALE, WHEN NEW DEVELOPER COMES IN TEAMS THEN EASY TO WORK ON SEPEATED FEATURES FOR EXAMPLE COMPANY DASHBOARD,&lt;/div&gt;&lt;div&gt;WORKING PARALLEL&lt;/div&gt;" style="rounded=0;whiteSpace=wrap;html=1;fontSize=12;align=left;" vertex="1" parent="1">
          <mxGeometry x="40" y="1570" width="390" height="110" as="geometry" />
        </mxCell>
        <mxCell id="WLLKisjKrPDKqr0g-KdP-87" value="&lt;span&gt;IAWS ELASTIC BEANSTALK IS AN EASY-TO-USE SERVICE FOR DEPLOYING AND SCALING WEB APPLICATIONS AND SERVICES DEPLOYED WITH JAVA, NODEJS, PYTHON ETC.&lt;/span&gt;&lt;br&gt;&lt;br&gt;&lt;span&gt;BEANSTALK AUTOMATICALLY HANDLES THE DEPLOYMENT&lt;/span&gt;&lt;br&gt;&lt;span&gt;NO ADDITIONAL CHARGE FOR ELASTIC BEANSTALK PAY ONLY FOR THE AWS RESOURCES NEEDED TO STORE AND RUN YOUR APPLICATION&lt;/span&gt;&lt;br&gt;&lt;br&gt;&lt;span&gt;EC2&amp;nbsp; ARCHITECTURE&lt;/span&gt;" style="rounded=0;whiteSpace=wrap;html=1;fontSize=12;align=left;" vertex="1" parent="1">
          <mxGeometry x="40" y="1710" width="390" height="150" as="geometry" />
        </mxCell>
        <mxCell id="WLLKisjKrPDKqr0g-KdP-88" value="TO HANDLE ASYNC REQUEST THERE ARE SERVERAL AWS SERVICES.. IF MESSAGE ONLY PRIORITY THEN AMAZON STORAGE SERVICE(S3) AND AMAZON SNS ALSO IF WORKFLOW IS ASYNCHRONOUS THEN AMAZON SQS&lt;br&gt;AND TWO WAY MESSAGING THEN AMAZON SQS,SERVERLESS APPLICATION" style="rounded=0;whiteSpace=wrap;html=1;fontSize=12;align=left;" vertex="1" parent="1">
          <mxGeometry x="520" y="1600" width="310" height="160" as="geometry" />
        </mxCell>
      </root>
    </mxGraphModel>
  </diagram>
</mxfile>
